<svg width="24.000000" height="24.000000" viewBox="0 0 24 24" fill="none" xmlns="http://www.w3.org/2000/svg" xmlns:xlink="http://www.w3.org/1999/xlink">
	<desc>
			Created with Pixso.
	</desc>
	<defs>
		<clipPath id="clip3_251">
			<rect id="Frame" width="24.000000" height="24.000000" fill="white" fill-opacity="0"/>
		</clipPath>
	</defs>
	<rect id="Frame" width="24.000000" height="24.000000" fill="#FFFFFF" fill-opacity="0"/>
	<g clip-path="url(#clip3_251)">
		<path id="Vector" d="M21 21L15.8 15.8M17.99 10.49C17.99 8.51 17.2 6.6 15.8 5.19C14.39 3.78 12.48 2.99 10.49 2.99C8.51 2.99 6.6 3.78 5.19 5.19C3.78 6.6 2.99 8.51 2.99 10.49C2.99 12.48 3.78 14.39 5.19 15.8C6.6 17.2 8.51 17.99 10.49 17.99C12.48 17.99 14.39 17.2 15.8 15.8C17.2 14.39 17.99 12.48 17.99 10.49Z" stroke="#150B2B" stroke-opacity="0.700000" stroke-width="1.500000" stroke-linejoin="round"/>
	</g>
</svg>
